<svg id="レイヤー_1" data-name="レイヤー 1" xmlns="http://www.w3.org/2000/svg" viewBox="0 0 1843.34 209.35"><defs><style>.cls-1{fill:#5d4d41;}</style></defs><title>logo</title><path class="cls-1" d="M100.25,174.15c0,3.56-2.44,4.44-12,4.89-24.42,14.65-56.61,26.42-85,29.3-1.33.22-2.22-2-.89-2.44,16.87-5.11,39.74-21.09,56-38.19a121,121,0,0,0,10.87-13.09C97.37,168.83,100.25,171,100.25,174.15Zm67.27-24.86c14.87-18,16-18.2,17.76-18.2,2,0,3.33.44,14.21,10,8,7.1,8.88,8.21,8.88,10.21a2.13,2.13,0,0,1-2.44,2.44H41.87a306.37,306.37,0,0,0-34,1.55l-2-7.54a349.82,349.82,0,0,0,36,1.55H62.74V121.1H54.08a306.37,306.37,0,0,0-34,1.55l-2-7.55a350,350,0,0,0,36,1.56h8.66c0-13.1-.23-22.43-1.11-31.08C94,88.91,96.7,91.35,96.7,94c0,2.44-2,4.44-7.77,7.33v15.32h26.2c0-13.1-.22-22.43-1.11-31.08,33.08,3.33,35.74,5.77,35.74,8.43,0,2.44-2,4.44-7.77,7.33v15.32h13.54c14.21-16.88,14.88-17.1,16.65-17.1,2,0,3.11.45,12.21,8.66,8.22,7.32,9.77,8.44,9.77,10.43a2.13,2.13,0,0,1-2.44,2.45H142v28.19Zm-111-66.82C55.85,90.9,49,92.68,38.76,92.68c-6.88,0-8.44-1.55-8.44-7.55,0-3.77,1.11-24,1.11-45.95,0-9.33,0-21.54-.44-34.19,21.76,4.44,28.64,7.1,30.64,9.32h86.58C159.08,2.55,160,2.1,162.19,2.1c2.44,0,3.55.45,14,8,8.66,6.21,9.32,7.32,9.32,9.32s-.22,2.66-6.88,8V47c0,14,1.11,33.3,1.11,36.18,0,6.22-5.55,9.11-19.76,9.11-7.77,0-9.1-1.34-9.1-7.77v-2Zm4.22-63.72c-1.11.67-2.44,1.56-4.22,2.45V46.06H89.6V18.75ZM56.52,50.5V78H89.6V50.5Zm32.41,98.79h26.2V121.1H88.93Zm99,43.51a15.54,15.54,0,0,1-15.31,15.76c-5.78,0-9.55-2-13.77-7.77-14.43-19.53-31.3-32.41-49.06-39.07a1.14,1.14,0,0,1,.44-2.22C170.63,159.5,187.94,178.37,187.94,192.8Zm-67-174c0,1.78-1.11,3.33-3.77,5.78V46.06h33.74V18.75Zm30,59.28V50.5H117.13V78Z" transform="translate(-1.69 -0.11)"/><path class="cls-1" d="M391.74,72C407.06,52.28,408,51.61,410.17,51.61s3.33.67,14.43,11.1c8.21,7.77,8.88,9.32,8.88,11.1s-.89,2.66-2.45,2.66H384V88c0,24,1.11,46.84,1.11,57.72,0,6.44-3.77,10.65-16.87,10.65-8.66,0-10.44-1.33-10.44-8.65v-7.11h-22.2v14.21c0,7.55-5.77,10.21-17.76,10.21-8,0-10.43-2.22-10.43-8s1.78-27.75,2-80.59h-24V187.25h94.35c16.43-20.2,17.54-20.64,19.32-20.64,2,0,3.33.66,15.54,12.21,8.65,8.21,9.1,8.88,9.1,10.43a2.13,2.13,0,0,1-2.44,2.44H285.4v6.22c0,7.55-5.77,10.21-17.76,10.21-8,0-10.43-2.22-10.43-8,0-6,1.77-29.31,2-123.66h-5.78c-7.77,0-15.76.45-28.41,1.56l-2.22-7.55C237.45,71.59,245.66,72,253.43,72h5.78V60.93c0-29.08-.23-40.62-1.78-56.38,31.52,2.66,35.74,5.32,35.74,8.21,0,2.44-1.77,4-7.77,6.88V72h24V62.27c0-29.09-.22-40.63-1.78-56.39,31.53,2.66,35.74,5.55,35.74,8.21,0,2.44-1.55,4-7.77,6.88V72h22.2V59.16c0-28.2-.22-38.85-1.77-51.95,31.52,2.66,35.74,5.33,35.74,8.21,0,2.45-1.78,4-7.77,6.89V72Zm-34,4.44h-22.2v59.72h22.2Z" transform="translate(-1.69 -0.11)"/><path class="cls-1" d="M562.46,86.69c10,10,30.86,19.31,47.28,24.86a199,199,0,0,0,45.74,9.1c1.33,0,1.33,1.78.22,2.22-6.88,3.11-15.76,14.43-20.2,24.2-1.34,3.11-2.67,3.77-4.44,3.77a29.82,29.82,0,0,1-8-1.33,95,95,0,0,1-28.19-14.65c-1.11.67-2.44,1.33-4.22,2.22V150c0,21.08,1.11,44.62,1.11,48.39,0,6.44-6.21,9.55-20,9.55-7.32,0-9.32-2-9.32-7.77,0-4,.89-26.86.89-48.84,0-11.77,0-20.43-1.34-30.86,8.66,1.33,15.1,2.22,20.21,3.11-9.77-10.66-20-26.42-23.76-36.85h-3.55c-.44,1.33-2,2-4.88,2.88-6.89,10.21-18.43,21.09-32.42,31.08,20.65,2.89,22.87,4.66,22.87,7.11,0,2.21-1.11,4-6.88,6.66,0,17.76-4,33.07-15.76,47.28-11.33,13.54-36.86,25.75-64.38,27.75-1.34,0-2-2.22-.67-2.44,20.87-5.11,35.3-17.09,44-31.52,6.88-11.55,9.54-25.31,9.54-41.07V128.2C487,140,464.56,149.29,443.69,153.06c-1.33.23-2.22-2-.89-2.44,27.31-8.88,59.27-39.07,72.15-63.93H500.52v2.88c0,9.77-7.77,11.77-18.65,11.77-6.88,0-8.43-1.56-8.43-7.55,0-3.77,1.11-24,1.11-55.72,0-9.33,0-21.54-.45-34.19,22.42,4.44,29.53,7.1,31.53,9.32H592C603.31,1.44,604.19,1,606.41,1c2.45,0,3.56.45,14.21,8,8.66,6.21,9.33,7.32,9.33,9.32s-.23,2.44-6.89,8V51.17c0,14,1.11,33.3,1.11,36.18,0,6.22-5.55,9.1-20.64,9.1-7.77,0-9.1-1.33-9.1-7.77v-2Zm-57.72-69c-1.11.67-2.44,1.56-4.22,2.45V47.61h32.41v-30Zm-4.22,64.61h32.41V52.05H500.52Zm60.83-34.64h33.08v-30H565.12c0,1.78-1.11,3.33-3.77,5.78Zm33.08,34.64V52.05H561.35v30.2Z" transform="translate(-1.69 -0.11)"/><path class="cls-1" d="M692.66,35.45C705.53,39.8,715.1,52,715.1,64.16c0,5.39-1.22,10.09-5.91,21.75-7.48,19-10.27,30.27-10.27,40.71,0,7,1,11.49,4.18,17.4,5.91-8.7,13-20.88,20.53-34.8a.39.39,0,0,1,.69.35c-4.69,15.31-9.74,36-9.74,40.37a17.91,17.91,0,0,0,1.74,7.48c1.91,4.7,2.26,5.39,2.26,7.66,0,5.39-3.83,9.56-8.87,9.56-13.57,0-23.84-20.35-23.84-47.32,0-14.1,1.74-26.1,7.83-52.9,2.61-11.83,3.48-16.7,3.48-21.92,0-6.61-1.39-10.79-4.87-16.53C692.14,35.62,692.31,35.45,692.66,35.45Zm49.41,90.48c5.22,13.57,14.27,20.18,27.67,20.18,7.83,0,12.7-1.22,24.88-5.92a17.55,17.55,0,0,1,6.78-1.56c6.44,0,12,5,12,11,0,8.7-14.27,15.49-32.54,15.49-25,0-39-13.75-39.67-39C741.2,125.58,741.9,125.58,742.07,125.93Zm5.22-69.43c4.35,2.79,7.66,4,11.83,4,7,0,10.79-1.39,24-8.17,3.13-1.74,5.56-2.61,7.82-2.61,5.92,0,12.36,5.91,12.36,11.31,0,7.48-14.79,14.79-29.75,14.79-13.92,0-22.1-5.75-27-19C746.42,56.5,746.94,56.33,747.29,56.5Z" transform="translate(-1.69 -0.11)"/><path class="cls-1" d="M903.18,160.39c.22,23.53.89,35.52.89,38.4,0,6.67-6.66,9.55-15.32,9.55-9.1,0-10.88-1.55-10.88-7.32,0-4,.67-15.55,1.11-40.63H862.33a139.5,139.5,0,0,0-22.42,1.55l-2-7.54A226.82,226.82,0,0,0,862.33,156H879c.22-7.77.22-16.87.22-27.31H869v5.55c0,6.44-4.88,8.22-13.54,8.22-7.77,0-8.66-.89-8.66-6.44,0-4.44,1.11-28.64,1.11-48.62,0-17.54,0-24.2-.66-33.74,16.2,4.44,22.42,6.88,24.86,8.66h7.1V38.07H865.66a139.5,139.5,0,0,0-22.42,1.55l-2-7.55a227.24,227.24,0,0,0,24.42,1.56H879.2c0-17.1-.22-26.86-.88-33.52,32.41,2.66,33.52,4.44,33.52,8.21,0,2.22-1.33,4-8.88,7.1V33.63h7.1c11.1-14.65,12-15.32,13.77-15.32s2.66.22,10.21,7.77c7.55,7.33,8,8.44,8,10s-.89,2-2.22,2H903v24.2h7.55c9.1-10.44,9.76-10.66,11.54-10.66,2.22,0,3.11.44,11.77,8,7.1,6.22,7.54,7.11,7.54,8.66,0,1.78-.44,2.22-5.55,6.22v12c0,16,1.34,35.52,1.34,41.07,0,7.33-6.22,10-16,10-6,0-8-1.55-8-7.1v-1.78H903c0,10.22,0,19.32.22,27.31H915c12-15.54,12.65-16.21,14.65-16.21,1.77,0,2.88.22,11.32,8.44,7.55,7.33,8.21,8.44,8.21,9.77,0,1.77-.88,2.44-3.55,2.44ZM872.54,66.71A22.54,22.54,0,0,1,869,69.15V92.24h10.66V66.71ZM869,124.2h10.66V96.68H869Zm33.52-32h10.66V66.71H902.51Zm10.66,32V96.68H902.51V124.2Zm91.69-25.08c-.23,2.66-2,4.22-6.44,6.21-14.65,30-23.76,48.4-34.41,67.94,16.43-.23,32.41-.89,52-2-3.56-14-9.11-24.65-18.65-33.52-.89-.89,0-2.22,1.33-2,33.52,8,51.5,29.3,51.5,48.62,0,11.76-7.54,18.87-17.53,18.87-7.77,0-12.21-5.78-13.32-14.21-.45-3.56-.89-6.66-1.56-9.77-26.19,7.33-43.29,11.77-74.37,20.2-2.66,5.55-3.77,6.88-6,6.88-3.11,0-4-2.44-13.1-33.07,7.33.22,11.32.44,16.43.44l11.1-.22c4.88-20.87,6.88-32.64,10.88-56.39.88-5.33,2-12.43,2.66-18h-1.55a139.55,139.55,0,0,0-22.43,1.55l-2-7.77a236.74,236.74,0,0,0,24.42,1.78H1010c14.43-19.76,15.32-20.2,17.54-20.2s3.11,0,14.43,11.1c8.21,8,8.66,8.88,8.66,10.87s-1.11,2.67-4.44,2.67Zm-36-63.72A138.46,138.46,0,0,0,946.47,37l-2-7.55A226.82,226.82,0,0,0,968.89,31h34c14-18.42,14.87-19.31,17.09-19.31s3.11.44,12.43,9.77c8.44,8.43,8.88,9.1,8.88,11.32,0,2-1.11,2.66-4.44,2.66Z" transform="translate(-1.69 -0.11)"/><path class="cls-1" d="M1225.08,192.36c16.43-20.43,17.54-21.32,20-21.32,2.66,0,4.22,1.12,17.09,12.44,8,7.1,9.77,9.32,9.77,10.88s-1.11,2.44-2.88,2.44H1101.65c-7.77,0-16.43.44-29.08,1.55l-2.22-7.55c14.65,1.11,23.53,1.56,31.3,1.56H1154V126h-22.87c-7.77,0-15.76.44-28.41,1.55l-2.22-7.54c14.65,1.11,22.86,1.55,30.63,1.55H1154V67.82H1119c-12.87,33.07-34.18,63.93-53.5,77.25a1.2,1.2,0,0,1-1.55-1.78c13.1-15.09,26.64-64.15,30.86-99.67,1.77-14.21,2-19.76,1.77-26.2,36.85,7.77,40,9.1,40,12.43,0,2.89-1.33,5.11-8.21,7.77a198,198,0,0,1-7.55,25.76H1154V38.07c0-14.88,0-22.42-1.33-35.52,36.85,2.22,40.62,4.44,40.62,8.66,0,2.66-1.11,4.66-9.32,7.77v44.4h34.63c17.32-20.65,17.76-20.87,20-20.87s2.89.22,15.76,12.21c8.22,7.77,9.11,9.1,9.11,10.65s-1.11,2.45-2.89,2.45H1184v53.72h20.2c16.65-20.42,17.54-20.65,19.54-20.65,2.44,0,3.55.67,15.54,11.77,8,7.55,9.32,8.88,9.32,10.88,0,1.55-1.11,2.44-2.88,2.44H1184v66.38Z" transform="translate(-1.69 -0.11)"/><path class="cls-1" d="M1316.18,31.86a17.11,17.11,0,0,1,8.13-2.08c12.45,0,24,12.11,24,25.26,0,5.71-.69,9.34-5,27.33-5,20.94-8,38.58-8,48.45,0,18,10.38,28.2,28.89,28.2,25.61,0,46.37-16.09,60-46.54.18-.35.87-.18.87.34-5.71,40.31-29.93,65.4-63,65.4-27,0-41-16.78-41-48.79,0-10.38,0-10.55,3.64-47.92,1.21-12.8,2.07-23.7,2.07-29.93,0-11.25-2.59-15.92-10.72-19A.36.36,0,0,1,1316.18,31.86Z" transform="translate(-1.69 -0.11)"/><path class="cls-1" d="M1473.09,67.15c2.25,5.54,3.46,6.57,9.17,6.57,5.19,0,13.49-1.38,22.49-3.63a162.43,162.43,0,0,0,2.76-25.43c0-3.81-1-5.54-4.67-7.09-1.55-.52-1.9-1-1.9-1.56,0-3.11,5.71-6.92,10.38-6.92,7.61,0,16.26,6.05,16.26,11.24a7.9,7.9,0,0,1-1.21,3.81c-.69,1.38-.86,2.08-1.73,4,6.75,5.88,11.25,8,17.13,8,4.84,0,7.78,2.77,7.78,7.61,0,8.48-9.34,14.71-32.52,21.45-5.54,27.16-12.11,53.11-18.68,72.15-6.06,17.12-9.17,21.79-14.71,21.79-5.19,0-9.69-6.92-9.69-14.87,0-3.29.35-4.33,4.33-10.39,6.74-10.55,17-40,22.66-65.39-8.65,1.9-13.84,2.59-17.82,2.59-7.78,0-13.49-5.53-13.49-13a24.49,24.49,0,0,1,2.94-10.9C1472.74,66.8,1472.91,66.8,1473.09,67.15Zm59.51-5.54c-2.42-3.11-7.27-9.17-8.65-10.9-2.42,11.25-2.77,13.15-3.29,15.75A60.85,60.85,0,0,0,1532.6,61.61Zm4.84,73.53c2.25,14.53,10.9,22,26,22a70.27,70.27,0,0,0,21.46-3.46c4.5-1.38,5.88-1.56,7.78-1.56,6.4,0,11.59,4.68,11.59,10.73,0,8.65-11.24,13.84-29.93,13.84-13.14,0-22.49-3.11-29.23-9.34a32.61,32.61,0,0,1-9.52-23.53,26,26,0,0,1,1.21-8.65C1536.93,134.79,1537.44,134.79,1537.44,135.14Zm4.68-41.35c10.2-11.76,23.7-18.51,36.67-18.51,11.07,0,19.55,5.71,19.55,13.32,0,5-3.11,8-8.82,8-7.61.17-10.21,1-27.51,8.13-.52.17-.86-.34-.52-.69,3.46-2.94,6.75-5.54,9.52-8,4-3.29,4.84-4.5,4.84-5.19,0-1.21-2.59-1.9-7.09-1.9-8.31,0-16.09,1.56-26.3,5.36C1542.12,94.48,1541.77,94.14,1542.12,93.79Z" transform="translate(-1.69 -0.11)"/><path class="cls-1" d="M1650.07,48.29c10.89,4.85,17,13.5,17,24.4,0,3.63,0,4-1.9,17.82a167,167,0,0,0-1.21,18.51c0,10.72,2.25,20.58,6,26.47,1.73,2.59,4,4.84,5,4.84,1.73,0,9.86-12.11,22.32-32.7.17-.34.69-.17.51.35-1.38,5-2.94,10-4.32,14.88-2.42,8.3-5,19.89-5,22.66,0,2.25.18,2.77,1.73,7.44a20.31,20.31,0,0,1,1.56,6.75c0,5.19-4.5,9.34-10.21,9.34-6.92,0-16.09-6.06-22.49-14.53-7.26-10-11.07-24.74-11.07-42.91,0-10,.52-14.88,4-40.14a84,84,0,0,0,.69-8.65,32,32,0,0,0-3.11-14C1649.37,48.47,1649.72,48.29,1650.07,48.29ZM1741.24,72c20.76,0,38.23,16.61,38.23,36,0,10.38-5.53,17.47-13.66,17.47-5.54,0-8.83-3.63-8.83-9.51,0-.87,0-3.12.18-5.37a47.69,47.69,0,0,0,.17-4.84c0-17.82-5.54-27.33-18.86-33-.35-.18-.35-.7.17-.7Z" transform="translate(-1.69 -0.11)"/><path class="cls-1" d="M1823.24,187c-12.28,0-21.8-9.17-21.8-21.62s9.52-21.63,21.8-21.63S1845,153,1845,165.42,1835.52,187,1823.24,187Zm0-37.37A15.75,15.75,0,1,0,1839,165.42,15.58,15.58,0,0,0,1823.24,149.67Z" transform="translate(-1.69 -0.11)"/></svg>